<svg xmlns="http://www.w3.org/2000/svg" xmlns:xlink="http://www.w3.org/1999/xlink" xmlns:lucid="lucid" width="696" height="452"><g transform="translate(-407 1)" lucid:page-tab-id="0_0"><path d="M590 20h310v260H590z" stroke="#dfe3e8" stroke-width="2" fill="#fff"/><path d="M663.68 109.47c0 8.72-7.06 15.8-15.78 15.8-8.73 0-15.8-7.08-15.8-15.8s7.07-15.8 15.8-15.8c8.72 0 15.78 7.08 15.78 15.8z" stroke="#000" stroke-opacity=".25" fill="#008a0e"/><path d="M663.68 151.58c0 8.72-7.06 15.8-15.78 15.8-8.73 0-15.8-7.08-15.8-15.8s7.07-15.8 15.8-15.8c8.72 0 15.78 7.08 15.78 15.8z" stroke="#000" stroke-opacity=".25" fill="#979ea8"/><path d="M663.68 193.68c0 8.72-7.06 15.8-15.78 15.8-8.73 0-15.8-7.08-15.8-15.8s7.07-15.78 15.8-15.78c8.72 0 15.78 7.06 15.78 15.78z" stroke="#000" stroke-opacity=".25" fill="#e81313"/><path d="M661.05 235.8c0 7.26-5.9 13.15-13.15 13.15-7.27 0-13.16-5.9-13.16-13.16 0-7.28 5.9-13.17 13.15-13.17 7.26 0 13.15 5.9 13.15 13.16z" stroke="#000" stroke-width="1.05" fill="#635dff"/><use xlink:href="#a" transform="matrix(1,0,0,1,632.1052631578948,51.578947368421055) translate(0 18.49757611014156)"/><use xlink:href="#b" transform="matrix(1,0,0,1,632.1052631578948,51.578947368421055) translate(52.48943184021719 18.49757611014156)"/><use xlink:href="#c" transform="matrix(1,0,0,1,679.4736842105264,93.6842105263158) translate(0 18.692595362752435)"/><use xlink:href="#d" transform="matrix(1,0,0,1,679.4736842105264,93.6842105263158) translate(51.738607717665325 18.692595362752435)"/><use xlink:href="#e" transform="matrix(1,0,0,1,679.4736842105264,93.6842105263158) translate(76.92534419235993 18.692595362752435)"/><use xlink:href="#f" transform="matrix(1,0,0,1,679.4736842105264,93.6842105263158) translate(119.92708939305803 18.692595362752435)"/><use xlink:href="#c" transform="matrix(1,0,0,1,679.4736842105264,135.78947368421052) translate(0 18.692595362752435)"/><use xlink:href="#d" transform="matrix(1,0,0,1,679.4736842105264,135.78947368421052) translate(51.738607717665325 18.692595362752435)"/><use xlink:href="#g" transform="matrix(1,0,0,1,679.4736842105264,135.78947368421052) translate(76.92534419235993 18.692595362752435)"/><use xlink:href="#f" transform="matrix(1,0,0,1,679.4736842105264,135.78947368421052) translate(93.98952879581155 18.692595362752435)"/><use xlink:href="#c" transform="matrix(1,0,0,1,679.4736842105264,177.89473684210526) translate(0 18.692595362752435)"/><use xlink:href="#d" transform="matrix(1,0,0,1,679.4736842105264,177.89473684210526) translate(51.738607717665325 18.692595362752435)"/><use xlink:href="#h" transform="matrix(1,0,0,1,679.4736842105264,177.89473684210526) translate(76.92534419235993 18.692595362752435)"/><use xlink:href="#f" transform="matrix(1,0,0,1,679.4736842105264,177.89473684210526) translate(109.62032189257324 18.692595362752435)"/><use xlink:href="#i" transform="matrix(1,0,0,1,679.4736842105264,220) translate(0 18.692595362752435)"/><use xlink:href="#j" transform="matrix(1,0,0,1,679.4736842105264,220) translate(32.72910606942021 18.692595362752435)"/><use xlink:href="#k" transform="matrix(1,0,0,1,679.4736842105264,220) translate(46.380453752181516 18.692595362752435)"/><use xlink:href="#l" transform="matrix(1,0,0,1,679.4736842105264,220) translate(66.85747527632347 18.692595362752435)"/><use xlink:href="#m" transform="matrix(1,0,0,1,679.4736842105264,220) translate(89.3139422144658 18.692595362752435)"/><use xlink:href="#n" transform="matrix(1,0,0,1,679.4736842105264,220) translate(133.64669381423312 18.692595362752435)"/><path d="M852 340h116" stroke="#000" stroke-width="2" fill="none"/><path d="M852.03 340.98h-1.17l.15-.97-.12-.98h1.15zM969 340l.14.98h-1.17v-1.96h1.15z" stroke="#000" stroke-width=".05"/><path d="M992 340h69.5" stroke="#000" stroke-width="2" fill="none"/><path d="M992.03 340.98h-1.17l.15-.97-.12-.98h1.15z" stroke="#000" stroke-width=".05"/><path d="M1076.76 340l-14.26 4.63v-9.26z" stroke="#000" stroke-width="2"/><path d="M602 340h106" stroke="#000" stroke-width="2" fill="none"/><path d="M602.03 340.98h-1.17l.15-.97-.12-.98h1.15zM709 340l.14.98h-1.17v-1.96h1.15z" stroke="#000" stroke-width=".05"/><path d="M732 340h96" stroke="#000" stroke-width="2" fill="none"/><path d="M732.03 340.98h-1.17l.15-.97-.12-.98h1.15zM829 340l.14.98h-1.17v-1.96h1.15z" stroke="#000" stroke-width=".05"/><path d="M411 340h167M411.03 340H410" stroke="#000" stroke-width="2" fill="none"/><path d="M579 340l.14.98h-1.17v-1.96h1.15z" stroke="#000" stroke-width=".05"/><path d="M490 340c0 5.52-4.48 10-10 10s-10-4.48-10-10 4.48-10 10-10 10 4.48 10 10z" stroke="#000" stroke-width="2" fill="#008a0e"/><path d="M600 340c0 5.52-4.48 10-10 10s-10-4.48-10-10 4.48-10 10-10 10 4.48 10 10z" stroke="#000" stroke-width="2" fill="#979ea8"/><path d="M730 340c0 5.52-4.48 10-10 10s-10-4.48-10-10 4.48-10 10-10 10 4.48 10 10zM850 340c0 5.52-4.48 10-10 10s-10-4.48-10-10 4.48-10 10-10 10 4.48 10 10z" stroke="#000" stroke-width="2" fill="#e81313"/><path d="M990 340c0 5.52-4.48 10-10 10s-10-4.48-10-10 4.48-10 10-10 10 4.48 10 10z" stroke="#000" stroke-width="2" fill="#635dff"/><g fill="none"><path d="M480 390v-30h500v30z"/><path d="M980 360c0 5.52-4.48 10-10 10H740c-5.52 0-10 4.48-10 10 0-5.52-4.48-10-10-10H490c-5.52 0-10-4.48-10-10" stroke="#000" stroke-width="2"/></g><path d="M480 370h500v60H480z" stroke="#000" stroke-opacity="0" stroke-width="2" fill="#fff" fill-opacity="0"/><g><use xlink:href="#o" transform="matrix(1,0,0,1,485,375) translate(166.125 30.025)"/><use xlink:href="#p" transform="matrix(1,0,0,1,485,375) translate(216.525 30.025)"/><use xlink:href="#q" transform="matrix(1,0,0,1,485,375) translate(246.575 30.025)"/><use xlink:href="#r" transform="matrix(1,0,0,1,485,375) translate(265.075 30.025)"/></g><defs><path d="M24-248c120-7 223 5 221 122C244-46 201 0 124 0H24v-248zM76-40c74 7 117-18 117-86 0-67-45-88-117-82v168" id="s"/><path d="M25-224v-37h50v37H25zM25 0v-190h50V0H25" id="t"/><path d="M133-34C117-15 103 5 69 4 32 3 11-16 11-54c-1-60 55-63 116-61 1-26-3-47-28-47-18 1-26 9-28 27l-52-2c7-38 36-58 82-57s74 22 75 68l1 82c-1 14 12 18 25 15v27c-30 8-71 5-69-32zm-48 3c29 0 43-24 42-57-32 0-66-3-65 30 0 17 8 27 23 27" id="u"/><path d="M195-6C206 82 75 100 31 46c-4-6-6-13-8-21l49-6c3 16 16 24 34 25 40 0 42-37 40-79-11 22-30 35-61 35-53 0-70-43-70-97 0-56 18-96 73-97 30 0 46 14 59 34l2-30h47zm-90-29c32 0 41-27 41-63 0-35-9-62-40-62-32 0-39 29-40 63 0 36 9 62 39 62" id="v"/><path d="M135-150c-39-12-60 13-60 57V0H25l-1-190h47c2 13-1 29 3 40 6-28 27-53 61-41v41" id="w"/><path d="M220-157c-53 9-28 100-34 157h-49v-107c1-27-5-49-29-50C55-147 81-57 75 0H25l-1-190h47c2 12-1 28 3 38 10-53 101-56 108 0 13-22 24-43 59-42 82 1 51 116 57 194h-49v-107c-1-25-5-48-29-50" id="x"/><g id="a"><use transform="matrix(0.03412836920690324,0,0,0.03412836920690324,0,0)" xlink:href="#s"/><use transform="matrix(0.03412836920690324,0,0,0.03412836920690324,8.83924762458794,0)" xlink:href="#t"/><use transform="matrix(0.03412836920690324,0,0,0.03412836920690324,12.252084545278265,0)" xlink:href="#u"/><use transform="matrix(0.03412836920690324,0,0,0.03412836920690324,19.077758386658914,0)" xlink:href="#v"/><use transform="matrix(0.03412836920690324,0,0,0.03412836920690324,26.551871242970726,0)" xlink:href="#w"/><use transform="matrix(0.03412836920690324,0,0,0.03412836920690324,31.329842931937176,0)" xlink:href="#u"/><use transform="matrix(0.03412836920690324,0,0,0.03412836920690324,38.15551677331783,0)" xlink:href="#x"/></g><path d="M147 0L96-86 75-71V0H25v-261h50v150l67-79h53l-66 74L201 0h-54" id="y"/><path d="M185-48c-13 30-37 53-82 52C43 2 14-33 14-96s30-98 90-98c62 0 83 45 84 108H66c0 31 8 55 39 56 18 0 30-7 34-22zm-45-69c5-46-57-63-70-21-2 6-4 13-4 21h74" id="z"/><path d="M123 10C108 53 80 86 19 72V37c35 8 53-11 59-39L3-190h52l48 148c12-52 28-100 44-148h51" id="A"/><g id="b"><use transform="matrix(0.03412836920690324,0,0,0.03412836920690324,0,0)" xlink:href="#y"/><use transform="matrix(0.03412836920690324,0,0,0.03412836920690324,6.825673841380649,0)" xlink:href="#z"/><use transform="matrix(0.03412836920690324,0,0,0.03412836920690324,13.651347682761298,0)" xlink:href="#A"/></g><path d="M212-179c-10-28-35-45-73-45-59 0-87 40-87 99 0 60 29 101 89 101 43 0 62-24 78-52l27 14C228-24 195 4 139 4 59 4 22-46 18-125c-6-104 99-153 187-111 19 9 31 26 39 46" id="B"/><path d="M100-194c62-1 85 37 85 99 1 63-27 99-86 99S16-35 15-95c0-66 28-99 85-99zM99-20c44 1 53-31 53-75 0-43-8-75-51-75s-53 32-53 75 10 74 51 75" id="C"/><path d="M210-169c-67 3-38 105-44 169h-31v-121c0-29-5-50-35-48C34-165 62-65 56 0H25l-1-190h30c1 10-1 24 2 32 10-44 99-50 107 0 11-21 27-35 58-36 85-2 47 119 55 194h-31v-121c0-29-5-49-35-48" id="D"/><path d="M24-231v-30h32v30H24zM24 0v-190h32V0H24" id="E"/><path d="M59-47c-2 24 18 29 38 22v24C64 9 27 4 27-40v-127H5v-23h24l9-43h21v43h35v23H59v120" id="F"/><path d="M135-143c-3-34-86-38-87 0 15 53 115 12 119 90S17 21 10-45l28-5c4 36 97 45 98 0-10-56-113-15-118-90-4-57 82-63 122-42 12 7 21 19 24 35" id="G"/><g id="c"><use transform="matrix(0.03412836920690325,0,0,0.03412836920690325,0,0)" xlink:href="#B"/><use transform="matrix(0.03412836920690325,0,0,0.03412836920690325,8.839247624587943,0)" xlink:href="#C"/><use transform="matrix(0.03412836920690325,0,0,0.03412836920690325,15.664921465968591,0)" xlink:href="#D"/><use transform="matrix(0.03412836920690325,0,0,0.03412836920690325,25.869303858832666,0)" xlink:href="#D"/><use transform="matrix(0.03412836920690325,0,0,0.03412836920690325,36.073686251696735,0)" xlink:href="#E"/><use transform="matrix(0.03412836920690325,0,0,0.03412836920690325,38.769827419042095,0)" xlink:href="#F"/><use transform="matrix(0.03412836920690325,0,0,0.03412836920690325,42.18266433973242,0)" xlink:href="#G"/></g><path d="M206 0h-36l-40-164L89 0H53L-1-190h32L70-26l43-164h34l41 164 42-164h31" id="H"/><path d="M106-169C34-169 62-67 57 0H25v-261h32l-1 103c12-21 28-36 61-36 89 0 53 116 60 194h-32v-121c2-32-8-49-39-48" id="I"/><g id="d"><use transform="matrix(0.03412836920690325,0,0,0.03412836920690325,0,0)" xlink:href="#H"/><use transform="matrix(0.03412836920690325,0,0,0.03412836920690325,8.839247624587943,0)" xlink:href="#E"/><use transform="matrix(0.03412836920690325,0,0,0.03412836920690325,11.535388791933299,0)" xlink:href="#F"/><use transform="matrix(0.03412836920690325,0,0,0.03412836920690325,14.948225712623625,0)" xlink:href="#I"/></g><path d="M115-194c55 1 70 41 70 98S169 2 115 4C84 4 66-9 55-30l1 105H24l-1-265h31l2 30c10-21 28-34 59-34zm-8 174c40 0 45-34 45-75s-6-73-45-74c-42 0-51 32-51 76 0 43 10 73 51 73" id="J"/><path d="M141-36C126-15 110 5 73 4 37 3 15-17 15-53c-1-64 63-63 125-63 3-35-9-54-41-54-24 1-41 7-42 31l-33-3c5-37 33-52 76-52 45 0 72 20 72 64v82c-1 20 7 32 28 27v20c-31 9-61-2-59-35zM48-53c0 20 12 33 32 33 41-3 63-29 60-74-43 2-92-5-92 41" id="K"/><path d="M100-194c63 0 86 42 84 106H49c0 40 14 67 53 68 26 1 43-12 49-29l28 8c-11 28-37 45-77 45C44 4 14-33 15-96c1-61 26-98 85-98zm52 81c6-60-76-77-97-28-3 7-6 17-6 28h103" id="L"/><path d="M85-194c31 0 48 13 60 33l-1-100h32l1 261h-30c-2-10 0-23-3-31C134-8 116 4 85 4 32 4 16-35 15-94c0-66 23-100 70-100zm9 24c-40 0-46 34-46 75 0 40 6 74 45 74 42 0 51-32 51-76 0-42-9-74-50-73" id="M"/><g id="e"><use transform="matrix(0.03412836920690325,0,0,0.03412836920690325,0,0)" xlink:href="#J"/><use transform="matrix(0.03412836920690325,0,0,0.03412836920690325,6.82567384138065,0)" xlink:href="#K"/><use transform="matrix(0.03412836920690325,0,0,0.03412836920690325,13.6513476827613,0)" xlink:href="#G"/><use transform="matrix(0.03412836920690325,0,0,0.03412836920690325,19.794454140003886,0)" xlink:href="#G"/><use transform="matrix(0.03412836920690325,0,0,0.03412836920690325,25.93756059724647,0)" xlink:href="#L"/><use transform="matrix(0.03412836920690325,0,0,0.03412836920690325,32.76323443862712,0)" xlink:href="#M"/></g><path d="M96-169c-40 0-48 33-48 73s9 75 48 75c24 0 41-14 43-38l32 2c-6 37-31 61-74 61-59 0-76-41-82-99-10-93 101-131 147-64 4 7 5 14 7 22l-32 3c-4-21-16-35-41-35" id="N"/><path d="M143 0L79-87 56-68V0H24v-261h32v163l83-92h37l-77 82L181 0h-38" id="O"/><g id="f"><use transform="matrix(0.03412836920690325,0,0,0.03412836920690325,0,0)" xlink:href="#N"/><use transform="matrix(0.03412836920690325,0,0,0.03412836920690325,6.143106457242585,0)" xlink:href="#I"/><use transform="matrix(0.03412836920690325,0,0,0.03412836920690325,12.968780298623235,0)" xlink:href="#L"/><use transform="matrix(0.03412836920690325,0,0,0.03412836920690325,19.794454140003886,0)" xlink:href="#N"/><use transform="matrix(0.03412836920690325,0,0,0.03412836920690325,25.93756059724647,0)" xlink:href="#O"/><use transform="matrix(0.03412836920690325,0,0,0.03412836920690325,32.080667054489055,0)" xlink:href="#G"/></g><path d="M117-194c89-4 53 116 60 194h-32v-121c0-31-8-49-39-48C34-167 62-67 57 0H25l-1-190h30c1 10-1 24 2 32 11-22 29-35 61-36" id="P"/><g id="g"><use transform="matrix(0.03412836920690325,0,0,0.03412836920690325,0,0)" xlink:href="#P"/><use transform="matrix(0.03412836920690325,0,0,0.03412836920690325,6.82567384138065,0)" xlink:href="#C"/></g><path d="M101-234c-31-9-42 10-38 44h38v23H63V0H32v-167H5v-23h27c-7-52 17-82 69-68v24" id="Q"/><path d="M24 0v-261h32V0H24" id="R"/><g id="h"><use transform="matrix(0.03412836920690325,0,0,0.03412836920690325,0,0)" xlink:href="#Q"/><use transform="matrix(0.03412836920690325,0,0,0.03412836920690325,3.412836920690325,0)" xlink:href="#K"/><use transform="matrix(0.03412836920690325,0,0,0.03412836920690325,10.238510762070973,0)" xlink:href="#E"/><use transform="matrix(0.03412836920690325,0,0,0.03412836920690325,12.934651929416331,0)" xlink:href="#R"/><use transform="matrix(0.03412836920690325,0,0,0.03412836920690325,15.630793096761687,0)" xlink:href="#L"/><use transform="matrix(0.03412836920690325,0,0,0.03412836920690325,22.456466938142338,0)" xlink:href="#M"/></g><path d="M197 0v-115H63V0H30v-248h33v105h134v-105h34V0h-34" id="S"/><g id="i"><use transform="matrix(0.03412836920690325,0,0,0.03412836920690325,0,0)" xlink:href="#S"/><use transform="matrix(0.03412836920690325,0,0,0.03412836920690325,8.839247624587943,0)" xlink:href="#L"/><use transform="matrix(0.03412836920690325,0,0,0.03412836920690325,15.664921465968591,0)" xlink:href="#K"/><use transform="matrix(0.03412836920690325,0,0,0.03412836920690325,22.490595307349242,0)" xlink:href="#M"/></g><g id="j"><use transform="matrix(0.03412836920690325,0,0,0.03412836920690325,0,0)" xlink:href="#C"/><use transform="matrix(0.03412836920690325,0,0,0.03412836920690325,6.82567384138065,0)" xlink:href="#Q"/></g><g id="k"><use transform="matrix(0.03412836920690325,0,0,0.03412836920690325,0,0)" xlink:href="#F"/><use transform="matrix(0.03412836920690325,0,0,0.03412836920690325,3.412836920690325,0)" xlink:href="#I"/><use transform="matrix(0.03412836920690325,0,0,0.03412836920690325,10.238510762070973,0)" xlink:href="#L"/></g><path d="M84 4C-5 8 30-112 23-190h32v120c0 31 7 50 39 49 72-2 45-101 50-169h31l1 190h-30c-1-10 1-25-2-33-11 22-28 36-60 37" id="T"/><g id="l"><use transform="matrix(0.03412836920690325,0,0,0.03412836920690325,0,0)" xlink:href="#J"/><use transform="matrix(0.03412836920690325,0,0,0.03412836920690325,6.82567384138065,0)" xlink:href="#T"/><use transform="matrix(0.03412836920690325,0,0,0.03412836920690325,13.6513476827613,0)" xlink:href="#R"/><use transform="matrix(0.03412836920690325,0,0,0.03412836920690325,16.347488850106654,0)" xlink:href="#R"/></g><path d="M114-163C36-179 61-72 57 0H25l-1-190h30c1 12-1 29 2 39 6-27 23-49 58-41v29" id="U"/><path d="M145-31C134-9 116 4 85 4 32 4 16-35 15-94c0-59 17-99 70-100 32-1 48 14 60 33 0-11-1-24 2-32h30l-1 268h-32zM93-21c41 0 51-33 51-76s-8-73-50-73c-40 0-46 35-46 75s5 74 45 74" id="V"/><g id="m"><use transform="matrix(0.03412836920690325,0,0,0.03412836920690325,0,0)" xlink:href="#U"/><use transform="matrix(0.03412836920690325,0,0,0.03412836920690325,4.061275935621487,0)" xlink:href="#L"/><use transform="matrix(0.03412836920690325,0,0,0.03412836920690325,10.886949777002135,0)" xlink:href="#V"/><use transform="matrix(0.03412836920690325,0,0,0.03412836920690325,17.712623618382786,0)" xlink:href="#T"/><use transform="matrix(0.03412836920690325,0,0,0.03412836920690325,24.538297459763434,0)" xlink:href="#L"/><use transform="matrix(0.03412836920690325,0,0,0.03412836920690325,31.363971301144083,0)" xlink:href="#G"/><use transform="matrix(0.03412836920690325,0,0,0.03412836920690325,37.50707775838667,0)" xlink:href="#F"/></g><path d="M115-194c53 0 69 39 70 98 0 66-23 100-70 100C84 3 66-7 56-30L54 0H23l1-261h32v101c10-23 28-34 59-34zm-8 174c40 0 45-34 45-75 0-40-5-75-45-74-42 0-51 32-51 76 0 43 10 73 51 73" id="W"/><g id="n"><use transform="matrix(0.03412836920690325,0,0,0.03412836920690325,0,0)" xlink:href="#W"/><use transform="matrix(0.03412836920690325,0,0,0.03412836920690325,6.82567384138065,0)" xlink:href="#U"/><use transform="matrix(0.03412836920690325,0,0,0.03412836920690325,10.886949777002135,0)" xlink:href="#K"/><use transform="matrix(0.03412836920690325,0,0,0.03412836920690325,17.712623618382786,0)" xlink:href="#P"/><use transform="matrix(0.03412836920690325,0,0,0.03412836920690325,24.538297459763434,0)" xlink:href="#N"/><use transform="matrix(0.03412836920690325,0,0,0.03412836920690325,30.68140391700602,0)" xlink:href="#I"/></g><path d="M52-115c0 93 80 130 150 87l7-35h11l-1 55c-23 7-52 12-83 12C60 4 19-37 15-115c-5-113 97-141 201-114l1 51h-12l-5-30c-15-9-39-16-62-16-66 0-86 41-86 109" id="X"/><path d="M126-119c3-38-42-31-69-25v132l23 4v8H7v-8l21-4v-226l-24-4v-8h53l-1 98c31-22 99-31 99 31v109c7 3 23-1 20 12h-71v-8l22-4v-107" id="Y"/><path d="M84-170c49 0 66 33 63 87H46c-8 60 38 80 95 63v10C128-2 108 4 88 4 34 4 14-29 14-84c-1-54 22-86 70-86zm33 73c12-57-57-82-69-24-1 7-2 15-2 24h71" id="Z"/><path d="M45-84c0 64 52 80 104 63 1 25-30 25-55 25-56 0-80-32-80-88 0-76 62-98 131-80v46h-10c-5-15-4-31-23-35-47-10-67 21-67 69" id="aa"/><path d="M60-80l68-73c-7-3-20 0-17-12h58c3 13-13 9-20 12l-47 48 60 93c7 3 21-1 18 12h-68c-3-12 9-9 15-12L82-83 60-60v48c7 3 21-1 18 12H10v-8l21-4v-226l-24-4v-8h53v170" id="ab"/><g id="o"><use transform="matrix(0.05,0,0,0.05,0,0)" xlink:href="#X"/><use transform="matrix(0.05,0,0,0.05,12,0)" xlink:href="#Y"/><use transform="matrix(0.05,0,0,0.05,21,0)" xlink:href="#Z"/><use transform="matrix(0.05,0,0,0.05,28.950000000000003,0)" xlink:href="#aa"/><use transform="matrix(0.05,0,0,0.05,36.9,0)" xlink:href="#ab"/></g><path d="M13-81c0-71 46-101 114-85l-1-72-28-4v-8h57v238c8 3 24-2 21 12h-47l-2-12C80 23 13-1 13-81zm77-74c-37 1-44 33-45 74 0 38 9 66 45 66 14 0 27-3 36-7v-130c-10-1-24-3-36-3" id="ac"/><path d="M47-200c-23 0-25-39 0-38 13 0 18 7 20 19-1 11-8 19-20 19zM65-12l28 4v8H8v-8l28-4v-141l-24-4v-8h53v153" id="ad"/><path d="M103-236c-39-15-35 32-34 71h44v15H69v136l35 6v8H15v-8l25-6v-136H11v-9l29-7c-6-59 23-100 80-84v36c-15 2-12-14-17-22" id="ae"/><g id="p"><use transform="matrix(0.05,0,0,0.05,0,0)" xlink:href="#ac"/><use transform="matrix(0.05,0,0,0.05,9,0)" xlink:href="#ad"/><use transform="matrix(0.05,0,0,0.05,14,0)" xlink:href="#ae"/><use transform="matrix(0.05,0,0,0.05,19.6,0)" xlink:href="#ae"/></g><path d="M125-118c4-37-41-34-68-26v132l23 4v8H8C5-13 21-9 28-12v-141c-7-3-23 1-20-12h47l2 13c31-23 98-29 98 31v109c7 3 23-1 20 12h-72v-8l22-4v-106" id="af"/><g id="q"><use transform="matrix(0.05,0,0,0.05,0,0)" xlink:href="#ad"/><use transform="matrix(0.05,0,0,0.05,5,0)" xlink:href="#af"/></g><path d="M53-14c58 12 82-15 82-73 0-52-35-77-82-58v131zM89 4C64 4 42-2 24-9v-229l-24-4v-8h53l-1 94c48-33 114-4 114 69 0 57-23 91-77 91" id="ag"/><path d="M54-38c-1 25 24 26 44 20v12C71 10 25 9 25-35v-115H4c-2-14 14-10 21-15l18-38h11v38h38v15H54v112" id="ah"/><path d="M240-154L185 4h-14l-41-109L90 4H77L20-153c-7-3-23 1-20-12h79v8l-27 4L91-41l40-108h14l40 109 38-113-28-4v-8h63v8" id="ai"/><g id="r"><use transform="matrix(0.05,0,0,0.05,0,0)" xlink:href="#ag"/><use transform="matrix(0.05,0,0,0.05,9,0)" xlink:href="#Z"/><use transform="matrix(0.05,0,0,0.05,16.95,0)" xlink:href="#ah"/><use transform="matrix(0.05,0,0,0.05,21.95,0)" xlink:href="#ai"/><use transform="matrix(0.05,0,0,0.05,34.9,0)" xlink:href="#Z"/><use transform="matrix(0.05,0,0,0.05,42.85,0)" xlink:href="#Z"/><use transform="matrix(0.05,0,0,0.05,50.800000000000004,0)" xlink:href="#af"/></g></defs></g></svg>